<?xml version="1.0" encoding="UTF-8" standalone="no"?>
<svg width="22px" height="22px" viewBox="0 0 22 22" version="1.1" xmlns="http://www.w3.org/2000/svg" xmlns:xlink="http://www.w3.org/1999/xlink" xmlns:sketch="http://www.bohemiancoding.com/sketch/ns">
    <!-- Generator: Sketch 3.5.1 (25234) - http://www.bohemiancoding.com/sketch -->
    <title>At_6_</title>
    <desc>Created with Sketch.</desc>
    <defs></defs>
    <g id="Page-1" stroke="none" stroke-width="1" fill="none" fill-rule="evenodd" sketch:type="MSPage">
        <g id="4" sketch:type="MSArtboardGroup" transform="translate(-754.000000, -739.000000)" fill="#FFFFFF">
            <g id="At_6_" sketch:type="MSLayerGroup" transform="translate(754.000000, 738.000000)">
                <path d="M15.225,14.559 C15.07,15.059 14.884,15.618 14.884,16.059 C14.884,16.588 15.1,16.971 15.627,16.971 C17.514,16.971 19.896,13.353 19.896,10.206 C19.896,5.559 15.842,2.618 11.51,2.618 C6.219,2.618 2.104,6.911 2.104,12.058 C2.104,17.293 6.467,21.381 11.666,21.381 C14.605,21.381 17.607,19.97 19.34,17.822 L21.289,17.822 C19.309,21.057 15.564,22.999 11.603,22.999 C5.075,22.999 -9.09494702e-13,18.116 -9.09494702e-13,11.91 C-9.09494702e-13,5.851 5.199,0.999 11.48,0.999 C17.205,0.999 22,4.764 22,10.058 C22,15.175 17.668,18.587 14.76,18.587 C13.708,18.587 12.842,17.97 12.78,16.675 L12.687,16.675 C11.758,17.705 10.367,18.646 8.85,18.646 C6.22,18.646 4.426,16.587 4.426,14 C4.426,9.911 7.334,5.647 11.697,5.647 C13.121,5.647 14.451,6.293 15.163,8.058 L15.874,6.204 L17.824,6.204 L15.225,14.559 L15.225,14.559 Z M6.746,13.794 C6.746,15.441 7.859,16.648 9.406,16.648 C12.098,16.648 14.203,12.794 14.203,10.382 C14.203,8.971 12.996,7.647 11.696,7.647 C8.788,7.646 6.746,11.235 6.746,13.794 L6.746,13.794 Z" id="Shape" sketch:type="MSShapeGroup"></path>
            </g>
        </g>
    </g>
</svg>