<?xml version="1.0" encoding="UTF-8" standalone="no"?>
<svg width="21px" height="21px" viewBox="0 0 21 21" version="1.1" xmlns="http://www.w3.org/2000/svg" xmlns:xlink="http://www.w3.org/1999/xlink" xmlns:sketch="http://www.bohemiancoding.com/sketch/ns">
    <!-- Generator: Sketch 3.5.1 (25234) - http://www.bohemiancoding.com/sketch -->
    <title>Home_5_</title>
    <desc>Created with Sketch.</desc>
    <defs></defs>
    <g id="Page-1" stroke="none" stroke-width="1" fill="none" fill-rule="evenodd" sketch:type="MSPage">
        <g id="4" sketch:type="MSArtboardGroup" transform="translate(-460.000000, -743.000000)" stroke="#FFFFFF" fill="#FFFFFF">
            <g id="Home_5_" sketch:type="MSLayerGroup" transform="translate(461.000000, 744.000000)">
                <path d="M15.2,4.77812 L15.2,2.28 L16.72,2.28 L16.72,6.29812 L17.48,7.05812 L17.48,1.52 L14.44,1.52 L14.44,4.01812 L15.2,4.77812 Z" id="Shape" sketch:type="MSShapeGroup"></path>
                <path d="M19,9.49544 L9.51102,0 L9.50532,0.00608 L9.5,0.00076 L0,9.5 L0,10.374 L9.50608,0.874 L19,10.374 L19,9.49544 Z" id="Shape" sketch:type="MSShapeGroup"></path>
                <path d="M16.72,9.12 L16.72,18.24 L11.4,18.24 L11.4,12.92 L7.6,12.92 L7.6,18.24 L2.28,18.24 L2.28,9.12 L1.52,9.88 L1.52,19 L8.36,19 L8.36,13.68 L10.64,13.68 L10.64,19 L17.48,19 L17.48,9.88 L16.72,9.12 Z" id="Shape" sketch:type="MSShapeGroup"></path>
            </g>
        </g>
    </g>
</svg>