<?xml version="1.0" encoding="UTF-8" standalone="no"?>
<svg width="21px" height="21px" viewBox="0 0 21 21" version="1.1" xmlns="http://www.w3.org/2000/svg" xmlns:xlink="http://www.w3.org/1999/xlink" xmlns:sketch="http://www.bohemiancoding.com/sketch/ns">
    <!-- Generator: Sketch 3.5.1 (25234) - http://www.bohemiancoding.com/sketch -->
    <title>Pencil_4_</title>
    <desc>Created with Sketch.</desc>
    <defs></defs>
    <g id="Page-1" stroke="none" stroke-width="1" fill="none" fill-rule="evenodd" sketch:type="MSPage">
        <g id="4" sketch:type="MSArtboardGroup" transform="translate(-582.000000, -741.000000)" stroke="#FFFFFF" fill="#FFFFFF">
            <g id="Pencil_4_" sketch:type="MSLayerGroup" transform="translate(583.000000, 742.000000)">
                <path d="M15.21482,0 L2.97464,12.2398 L0,19 L6.76058,16.02536 L19,3.78518 L15.21482,0 L15.21482,0 Z M18.12714,3.79392 L16.60562,5.31506 L13.68494,2.39438 L15.2057,0.87324 L18.12714,3.79392 L18.12714,3.79392 Z M6.4087,15.5116 L2.5403,17.21362 L1.78638,16.4597 L3.40518,12.78092 L4.59724,12.78092 L4.59724,14.9435 L6.9768,14.9435 L6.4087,15.5116 L6.4087,15.5116 Z M5.20942,14.3317 L5.20942,12.16912 L3.91058,12.16912 L13.25402,2.82606 L16.1747,5.74674 L7.58822,14.33246 L5.20942,14.3317 L5.20942,14.3317 Z" id="Shape" sketch:type="MSShapeGroup"></path>
            </g>
        </g>
    </g>
</svg>