<?xml version="1.0" encoding="UTF-8" standalone="no"?>
<svg width="35px" height="33px" viewBox="0 0 35 33" version="1.1" xmlns="http://www.w3.org/2000/svg" xmlns:xlink="http://www.w3.org/1999/xlink" xmlns:sketch="http://www.bohemiancoding.com/sketch/ns">
    <!-- Generator: Sketch 3.5.1 (25234) - http://www.bohemiancoding.com/sketch -->
    <title>Shape</title>
    <desc>Created with Sketch.</desc>
    <defs></defs>
    <g id="Page-1" stroke="none" stroke-width="1" fill="none" fill-rule="evenodd" sketch:type="MSPage">
        <g id="1" sketch:type="MSArtboardGroup" transform="translate(-502.000000, -447.000000)" fill="#4A4A4A">
            <g id="Group-+-Group-2" sketch:type="MSLayerGroup" transform="translate(220.000000, 138.000000)">
                <g id="Group" sketch:type="MSShapeGroup">
                    <path d="M307.453681,313.687759 C308.340696,313.157736 309.021287,312.315648 309.342458,311.313886 C308.513728,311.806267 307.594535,312.163866 306.61645,312.355112 C305.832647,311.520309 304.717958,311 303.483665,311 C301.11222,311 299.19005,312.92217 299.19005,315.292401 C299.19005,315.626929 299.228906,315.9566 299.302976,316.269271 C295.73488,316.088954 292.571132,314.381708 290.454681,311.78441 C290.086153,312.420074 289.874873,313.157736 289.874873,313.941539 C289.874873,315.43204 290.630141,316.745867 291.784293,317.514492 C291.081238,317.493243 290.418253,317.299569 289.838445,316.978398 L289.838445,317.033039 C289.838445,319.113063 291.318625,320.846415 293.28208,321.241656 C292.921445,321.337583 292.54199,321.389796 292.153427,321.389796 C291.875969,321.389796 291.607011,321.364903 291.344732,321.315119 C291.891147,323.020544 293.476968,324.259694 295.35421,324.293693 C293.884959,325.444202 292.035037,326.131472 290.024226,326.131472 C289.676949,326.131472 289.333921,326.111436 289,326.070759 C290.898492,327.287445 293.15519,327.999 295.580062,327.999 C303.47638,327.999 307.793673,321.460223 307.793673,315.787818 C307.793673,315.602644 307.787602,315.416862 307.780923,315.234116 C308.617547,314.630023 309.344887,313.874148 309.919838,313.010811 C309.151213,313.353231 308.322482,313.583333 307.453681,313.687759 Z" id="Shape"></path>
                </g>
            </g>
        </g>
    </g>
</svg>