<?xml version="1.0" encoding="UTF-8" standalone="no"?>
<svg width="23px" height="29px" viewBox="0 0 23 29" version="1.1" xmlns="http://www.w3.org/2000/svg" xmlns:xlink="http://www.w3.org/1999/xlink" xmlns:sketch="http://www.bohemiancoding.com/sketch/ns">
    <!-- Generator: Sketch 3.5.1 (25234) - http://www.bohemiancoding.com/sketch -->
    <title>User</title>
    <desc>Created with Sketch.</desc>
    <defs></defs>
    <g id="Page-1" stroke="none" stroke-width="1" fill="none" fill-rule="evenodd" sketch:type="MSPage">
        <g id="4" sketch:type="MSArtboardGroup" transform="translate(-666.000000, -734.000000)" stroke="#FFFFFF" fill="#FFFFFF">
            <g id="User" sketch:type="MSLayerGroup" transform="translate(667.000000, 735.000000)">
                <path d="M10.9816667,0.872080089 C13.539075,0.872080089 15.62,3.02393771 15.62,5.66895662 C15.62,8.31353949 13.539075,10.4649611 10.9816667,10.4649611 C8.42425833,10.4649611 6.34333333,8.31353949 6.34333333,5.66895662 C6.34333333,3.02393771 8.42425833,0.872080089 10.9816667,0.872080089 L10.9816667,0.872080089 Z M10.9816667,0 C7.95452167,0 5.5,2.53731702 5.5,5.66895662 C5.5,8.79972414 7.95452167,11.3370412 10.9816667,11.3370412 C14.0088117,11.3370412 16.4633333,8.79972414 16.4633333,5.66895662 C16.4633333,2.53731702 14.0088117,0 10.9816667,0 L10.9816667,0 L10.9816667,0 Z" id="Shape" sketch:type="MSShapeGroup"></path>
                <path d="M21.0833333,23.4527253 L20.24,18.4984383 C19.2916717,15.2045918 16.36404,12.5517241 10.5416667,12.5517241 C4.71929333,12.5517241 1.72208667,15.1684004 0.843333333,18.4984383 L0,23.4527253 C0,24.1695751 1.67654667,24.8048854 4.25841167,25.2021179 L4.21666667,25.6329255 C4.21666667,26.5961379 7.04858,27.3770857 10.5416667,27.3770857 C14.0347533,27.3770857 16.8666667,26.5961379 16.8666667,25.6329255 L16.8249217,25.2021179 C19.4067867,24.8048854 21.0833333,24.1695751 21.0833333,23.4527253 L21.0833333,23.4527253 Z M16.74101,24.3326541 L16.445,21.272525 L15.6016667,21.272525 L16.0233333,25.6329255 C15.37481,26.0022514 13.3579783,26.5050056 10.5416667,26.5050056 C7.725355,26.5050056 5.70852333,26.0022514 5.06,25.6329255 L5.48166667,21.272525 L4.63833333,21.272525 L4.34232333,24.3326541 C2.61517667,24.0679778 1.33921333,23.7283026 0.843333333,23.4527253 L1.68666667,18.4984383 C2.53,15.6768231 5.28474833,13.4238042 10.5416667,13.4238042 C15.798585,13.4238042 18.5533333,15.6406318 19.3966667,18.4984383 L20.24,23.4527253 C19.74412,23.7283026 18.4681567,24.0679778 16.74101,24.3326541 L16.74101,24.3326541 Z" id="Shape" sketch:type="MSShapeGroup"></path>
                <path id="Shape" sketch:type="MSShapeGroup" d="M21.2191467,23.1724138 L20.3758133,23.1724138 L20.1666667,23.2814238 L21.2191467,23.2814238 L21.2191467,23.1724138 Z"></path>
                <path id="Shape" sketch:type="MSShapeGroup" d="M0,23.1724138 L0.843333333,23.1724138 L1.05248,23.2814238 L0,23.2814238 L0,23.1724138 Z"></path>
            </g>
        </g>
    </g>
</svg>